<svg width="330" height="80" viewBox="0 0 330 80" xmlns="http://www.w3.org/2000/svg">
<path fill="#000000" d=" M 37.48 0.00 L 42.52 0.00 C 55.59 0.95 68.03 8.41 74.55 19.85 C 63.35 20.25 52.15 19.84 40.95 20.00 C 35.18 19.93 29.27 21.99 25.37 26.38 C 18.64 33.28 18.25 45.19 24.44 52.56 C 28.14 57.28 34.04 59.93 40.00 59.96 C 51.50 60.21 63.01 59.74 74.51 60.14 C 68.05 71.61 55.57 79.04 42.52 80.00 L 37.48 80.00 C 27.89 79.20 18.51 75.17 11.72 68.28 C 4.85 61.48 0.79 52.12 0.00 42.52 L 0.00 37.48 C 0.80 27.89 4.83 18.51 11.72 11.72 C 18.51 4.83 27.89 0.80 37.48 0.00 Z" />
<path fill="#000000" d="M120 80A40 40 0 1 1 120.001 80M120 60A20 20 0 1 0 119.999 60" />
<path fill="#000000" d=" M 207.48 0.00 L 212.53 0.00 C 225.59 0.95 238.03 8.41 244.55 19.85 C 232.43 20.36 220.28 19.61 208.17 20.17 C 198.83 20.72 190.71 28.83 190.17 38.17 C 189.61 50.28 190.36 62.43 189.85 74.55 C 178.05 67.77 170.26 54.65 170.03 41.04 C 169.60 28.54 175.54 16.05 185.44 8.43 C 191.73 3.49 199.54 0.70 207.48 0.00 Z" />
<path fill="#000000" d=" M 287.48 0.00 L 292.52 0.00 C 305.59 0.95 318.02 8.41 324.55 19.85 C 312.72 20.31 300.89 19.71 289.07 20.09 C 281.14 20.28 273.76 25.76 271.19 33.24 C 268.22 41.25 271.06 50.95 277.99 55.99 C 282.19 59.34 287.73 60.13 292.94 60.04 C 303.47 60.08 313.99 59.80 324.51 60.14 C 318.05 71.61 305.57 79.04 292.52 80.00 L 287.48 80.00 C 278.83 79.25 270.34 75.97 263.79 70.22 C 255.15 62.75 249.93 51.44 250.02 40.00 C 249.92 27.61 256.05 15.37 266.01 8.00 C 272.20 3.32 279.78 0.68 287.48 0.00 Z" />
<path fill="#000000" d=" M 283.43 32.45 C 286.56 29.64 291.07 30.03 294.98 29.94 C 306.30 30.15 317.61 29.76 328.93 30.16 C 329.25 32.60 329.72 35.03 330.00 37.49 L 330.00 42.52 C 329.72 44.97 329.25 47.40 328.93 49.84 C 317.61 50.24 306.30 49.85 294.98 50.06 C 291.07 49.97 286.56 50.36 283.43 47.55 C 278.92 43.85 278.92 36.15 283.43 32.45 Z" />
</svg>
