<svg width="512pt" height="512pt" viewBox="0 0 512 512" version="1.1" xmlns="http://www.w3.org/2000/svg">
<path fill="#009900" d="M 240.26 0.00 L 271.72 0.00 C 296.02 1.87 320.19 6.47 343.11 14.86 C 394.55 33.24 439.61 68.73 469.69 114.29 C 472.68 118.92 475.85 123.47 478.21 128.47 C 473.50 127.82 468.74 127.95 464.01 128.00 C 400.02 128.01 336.03 127.99 272.04 128.00 C 269.92 128.04 267.81 128.22 265.70 128.33 C 256.95 127.48 248.21 128.61 239.51 129.35 C 213.74 132.82 189.12 144.22 169.94 161.80 C 153.37 176.89 140.91 196.50 134.20 217.90 C 130.08 230.56 128.51 243.86 128.03 257.11 C 128.13 260.62 128.72 264.10 128.80 267.62 C 127.82 272.70 127.92 277.87 128.00 283.01 C 127.97 348.05 128.07 413.09 127.95 478.14 C 88.43 455.47 55.22 421.95 32.83 382.27 C 15.59 351.83 4.73 317.80 1.10 283.00 C 0.96 279.16 0.18 275.39 0.00 271.56 L 0.00 240.30 C 1.11 228.12 2.43 215.93 4.98 203.96 C 14.55 157.41 37.33 113.57 70.28 79.29 C 97.47 50.46 131.60 28.28 168.89 14.86 C 191.81 6.47 215.97 1.86 240.26 0.00 Z" />
<path fill="#006600" d="M 265.70 128.33 C 267.81 128.22 269.92 128.04 272.04 128.00 C 336.03 127.99 400.02 128.01 464.01 128.00 C 468.74 127.95 473.50 127.82 478.21 128.47 C 479.35 130.96 480.68 133.36 481.99 135.77 C 491.51 153.47 498.65 172.38 503.91 191.77 C 458.24 192.29 412.55 191.88 366.87 191.99 C 361.00 181.94 353.88 172.60 345.51 164.50 C 324.26 143.56 295.44 130.57 265.70 128.33 Z" />
<path fill="#009900" d="M 212.73 208.90 C 224.33 198.05 240.16 191.96 256.03 192.01 C 292.98 191.98 329.92 192.03 366.87 191.99 C 412.55 191.88 458.24 192.29 503.91 191.77 C 508.67 208.94 510.97 226.73 512.00 244.50 L 512.00 266.75 C 511.09 284.78 508.72 302.82 503.91 320.24 C 479.59 319.69 455.26 320.15 430.94 320.00 C 409.58 320.01 388.23 319.99 366.87 320.02 C 330.23 319.98 293.58 320.01 256.94 320.00 C 233.08 320.60 209.73 306.50 199.05 285.19 C 193.65 274.70 191.26 262.70 192.22 250.94 C 193.40 235.00 200.88 219.63 212.73 208.90 Z" />
<path fill="#00cc00" d="M 128.00 283.01 C 127.92 277.87 127.82 272.70 128.80 267.62 C 131.67 299.19 146.80 329.48 170.39 350.66 C 191.87 370.15 220.13 382.04 249.11 383.51 C 254.57 384.24 260.08 383.96 265.56 383.69 C 271.33 384.22 277.14 383.95 282.93 384.00 C 343.95 384.00 404.96 384.00 465.98 384.00 C 469.92 383.94 473.86 383.89 477.78 384.34 C 453.99 426.20 417.65 460.72 375.04 483.05 C 342.57 500.15 306.37 509.87 269.77 512.00 L 241.33 512.00 C 201.61 509.49 162.45 498.06 127.95 478.14 C 128.07 413.09 127.97 348.05 128.00 283.01 Z" />
<path fill="#006600" d="M 366.87 320.02 C 388.23 319.99 409.58 320.01 430.94 320.00 C 455.26 320.15 479.59 319.69 503.91 320.24 C 498.04 342.65 488.92 364.06 477.78 384.34 C 473.86 383.89 469.92 383.94 465.98 384.00 C 404.96 384.00 343.95 384.00 282.93 384.00 C 277.14 383.95 271.33 384.22 265.56 383.69 C 282.20 382.36 298.63 377.91 313.53 370.33 C 335.74 359.27 354.47 341.50 366.87 320.02 Z" />
</svg>
