<svg width="380" height="380" xmlns="http://www.w3.org/2000/svg">
<g>
<path fill="#080" d="m160 0c-15 0 -32 5 -41 16c-13 28 18 15 22 34c3 19 -18 20 -18 20l0 0l-97 0c0 0 0 96 0 96c0 0 1 22 20 18c15 -3 10 -24 22 -25c2 0 6 0 12 3c10 9 16 26 16 41c0 5 0 10 -1 15c-0 0 0 0 0 0c-1 13 -6 26 -15 34c-28 13 -15 -18 -34 -22c-14 -2 -18 8 -19 14l0 102c0 0 98 0 98 -0c0 0 22 -1 18 -20c-3 -19 -35 -6 -22 -34c9 -10 26 -16 41 -16c5 0 10 0 15 1c0 0 0 0 0 0c13 1 26 6 34 15c13 28 -18 15 -22 34c-3 19 18 20 18 20l97 0l0 -102c1 -6 5 -17 19 -14c19 3 6 35 34 22c9 -7 14 -21 15 -34c0 0 0 0 0 -0c0 -4 1 -9 1 -15c-0 -15 -5 -32 -16 -41c-28 -13 -15 18 -34 22c-19 3 -20 -18 -20 -18l-0 -97l-102 0c-6 -1 -16 -5 -14 -19c3 -19 35 -6 22 -34c-7 -9 -20 -14 -34 -15c-0 0 0 0 0 -0c-4 0 -9 -1 -15 -1z"/>
</g>
</svg>