<svg width="100" height="100" xmlns="http://www.w3.org/2000/svg">
    <g>
        <path d="M15.8,70.5c-1.1,1.9-1.9,4.8-1.9,6.6c0,.4,0,1,.1,1.7L.7,56C.3,55.2,0,54.2,0,53.2c0-1,.3-2.1,.7-2.9L7,39.3L0,35.2l23-.4L34.3,55l-7.2-4L15.8,70.5z M26,6.4c2-3.5,5.3-5.4,9.3-5.4c4.3,0,7.7,2,10.2,6.1l3.6,6l-12.5,21.6l-20.2-11.7L26,6.4z M27.4,88.8c-6,0-11-5-11-11c0-1.7,.7-4.6,1.8-6.4l3.4-6h25v23.4H27.4z M47.5,5.7C46,3,43.8,1.1,41.3,0h26c2.3,0,4.1,1,5.2,2.8l6.5,11l7-4l-11.2,20l-23-.3l7-4L47.5,5.7z M87.6,65.6c3.2,0,5.8-.8,8-2.5l-13,23c-1.1,1.8-3,2.9-5.2,2.9h-12.4v8l-12-19.8l12-19.8v8.3H87.6zM97.8,46.6c1,1.7,1.5,3.5,1.5,5.4c0,3.8-2.4,7.8-5.8,9.7c-1.6,.9-3.8,1.4-6,1.4h-7l-12.5-21.6l20.2-11.5L97.8,46.6z" fill="#080"/>
    </g>
</svg>