<svg xmlns="http://www.w3.org/2000/svg" width="250" height="250">
<g>
    <path d="m37.48 0l5.040001 0c13.07 0.9 25.5 8.4 32 19.85c-11.2 0.4 -22.4 -0 -33.6 0.15c-5.77 -0.1 -11.7 2 -15.6 6.4c-6.7 6.9 -7.1 18.8 -0.9 26.2c3.7 4.7 9.6 7.4 15.6 7.4c11.5 0.2 23 -0.2 34.5 0.18c-6.5 11.5 -18.9 18.9 -32 20l-5 0c-9.59 -0.8 -19 -4.8 -25.8 -11.71c-6.87 -6.8 -10.9 -16.2 -11.7 -26l0 -5.040001c0.8 -9.6 4.8 -19 11.7 -25.8c6.79 -6.9 16.2 -10.9 25.8 -11.72z" fill="#080"/>
    <path d="M200 80A40 40 0 1 1 200.001 80M200 60A20 20 0 1 0 199.999 60" fill="#080"/>
    <path d="m38 170l5 0c13 0.9 25.5 8.4 32 19.85c-12 0.5 -24.3 -0.2 -36.4 0.32c-9 0.5 -17.5 8.7 -18 18c-1 12.1 0.2 24.3 -0.3 36c-12 -6.8 -19.6 -19.9 -19.8 -33c-1 -12.5 5.5 -25 15.4 -32.6c6.3 -4.9 14.1 -7.7 22 -8.4z" fill="#080"/>
    <path d="m200 170l5 0c13 0.9 25.5 8.4 32 20c-12 0.5 -23.7 -0.1 -35.5 0.2c-8 0.2 -15.3 5.7 -17.9 13c-3 8 -0.1 17.7 6.8 23c4 3.4 9.7 4.1 15 4c11 0 21 -0.2 31.6 0c-6 11.5 -19 19 -32 20l-5 0c-9 -0.8 -17.1 -4 -23.7 -10c-9 -7.5 -13.9 -18.8 -13.8 -30c0 -12.4 6 -24.6 16 -32c6 -4.7 13.8 -7.3 21.5 -8z" fill="#080"/>
    <path d="m196 203c3 -2.8 7.6 -2.4 11.6 -2.5c11 0.2 22.6 -0.2 33.9 0c0 2.4 0.8 4.9 1.1 7.3l0 5c0 2.5 -0.8 4.9 -1.1 7c-11 0.4 -22.6 0 -34 0.2c-4 -0.1 -8.4 0.3 -11.6 -2.5c-4.5 -3.7 -4.5 -11.4 0 -15z" fill="#080"/>
    <path d="M80 40 h80 M40 85 v80 M85 210 h73 M80 80 l90 90 M80 170 l90 -90" stroke-dasharray="5,5" stroke-width="4" fill="none" stroke="#080"/>
</g>
</svg>